STARTFONT 2.1
COMMENT
COMMENT Converted from OpenType font "Minecraft.ttf" by "otf2bdf 3.0".
COMMENT
FONT -FreeType-Minecraft-Medium-R-Normal--17-120-100-100-P-88-ISO10646-1
SIZE 12 100 100
FONTBOUNDINGBOX 15 17 0 -4
STARTPROPERTIES 19
FOUNDRY "FreeType"
FAMILY_NAME "Minecraft"
WEIGHT_NAME "Medium"
SLANT "R"
SETWIDTH_NAME "Normal"
ADD_STYLE_NAME ""
PIXEL_SIZE 17
POINT_SIZE 120
RESOLUTION_X 100
RESOLUTION_Y 100
SPACING "P"
AVERAGE_WIDTH 88
CHARSET_REGISTRY "ISO10646"
CHARSET_ENCODING "1"
FONT_ASCENT 12
FONT_DESCENT 4
COPYRIGHT "CraftronGaming"
_OTF_FONTFILE "Minecraft.ttf"
_OTF_PSNAME "Minecraft"
ENDPROPERTIES
CHARS 107
STARTCHAR 0020
ENCODING 32
SWIDTH 300 0
DWIDTH 5 0
BBX 0 0 0 0
BITMAP
ENDCHAR
STARTCHAR 0021
ENCODING 33
SWIDTH 180 0
DWIDTH 3 0
BBX 2 13 0 0
BITMAP
C0
C0
C0
C0
C0
C0
C0
C0
C0
C0
00
C0
C0
ENDCHAR
STARTCHAR 0022
ENCODING 34
SWIDTH 600 0
DWIDTH 10 0
BBX 9 7 0 6
BITMAP
3380
3380
3380
3380
FF80
CC00
CC00
ENDCHAR
STARTCHAR 0023
ENCODING 35
SWIDTH 720 0
DWIDTH 12 0
BBX 11 13 0 0
BITMAP
3380
3380
3380
FFE0
FFE0
FFE0
3380
3380
FFE0
FFE0
3380
3380
3380
ENDCHAR
STARTCHAR 0024
ENCODING 36
SWIDTH 600 0
DWIDTH 10 0
BBX 9 15 0 -2
BITMAP
0C00
0C00
3F80
3F80
FF80
C000
C000
3000
3000
0C00
0C00
FF80
FF80
0C00
0C00
ENDCHAR
STARTCHAR 0025
ENCODING 37
SWIDTH 900 0
DWIDTH 15 0
BBX 13 13 1 0
BITMAP
6020
9020
9040
9180
9180
9180
6300
0430
0448
0848
1048
1048
2030
ENDCHAR
STARTCHAR 0026
ENCODING 38
SWIDTH 720 0
DWIDTH 12 0
BBX 11 13 0 0
BITMAP
0C00
0C00
3380
3380
3FE0
3CE0
3CE0
C380
C380
C380
C380
3CE0
3CE0
ENDCHAR
STARTCHAR 0027
ENCODING 39
SWIDTH 180 0
DWIDTH 3 0
BBX 2 4 0 9
BITMAP
C0
C0
C0
C0
ENDCHAR
STARTCHAR 0028
ENCODING 40
SWIDTH 420 0
DWIDTH 7 0
BBX 6 13 0 0
BITMAP
3C
3C
C0
C0
C0
C0
C0
C0
C0
C0
C0
3C
3C
ENDCHAR
STARTCHAR 0029
ENCODING 41
SWIDTH 420 0
DWIDTH 7 0
BBX 6 13 0 0
BITMAP
F0
F0
0C
0C
0C
0C
0C
0C
0C
0C
0C
F0
F0
ENDCHAR
STARTCHAR 002A
ENCODING 42
SWIDTH 420 0
DWIDTH 7 0
BBX 6 7 0 6
BITMAP
CC
CC
78
78
4C
CC
CC
ENDCHAR
STARTCHAR 002B
ENCODING 43
SWIDTH 660 0
DWIDTH 11 0
BBX 9 9 1 2
BITMAP
1800
1800
1800
1800
FF80
FF80
1800
1800
1800
ENDCHAR
STARTCHAR 002C
ENCODING 44
SWIDTH 180 0
DWIDTH 3 0
BBX 2 4 0 -2
BITMAP
C0
C0
40
80
ENDCHAR
STARTCHAR 002D
ENCODING 45
SWIDTH 360 0
DWIDTH 6 0
BBX 5 2 0 3
BITMAP
F8
F8
ENDCHAR
STARTCHAR 002E
ENCODING 46
SWIDTH 180 0
DWIDTH 3 0
BBX 2 2 0 0
BITMAP
C0
C0
ENDCHAR
STARTCHAR 002F
ENCODING 47
SWIDTH 600 0
DWIDTH 10 0
BBX 9 13 0 0
BITMAP
0180
0180
0200
0400
0400
0400
0800
1000
1000
2000
4000
4000
8000
ENDCHAR
STARTCHAR 0030
ENCODING 48
SWIDTH 600 0
DWIDTH 10 0
BBX 9 13 0 0
BITMAP
3C00
3C00
C380
C780
C780
C780
DB80
DB80
E380
E380
C380
3C00
3C00
ENDCHAR
STARTCHAR 0031
ENCODING 49
SWIDTH 420 0
DWIDTH 7 0
BBX 6 13 0 0
BITMAP
30
30
F0
F0
F0
30
30
30
30
30
30
FC
FC
ENDCHAR
STARTCHAR 0032
ENCODING 50
SWIDTH 600 0
DWIDTH 10 0
BBX 9 13 0 0
BITMAP
3C00
3C00
C380
C380
CF80
0C00
0C00
3000
3000
C000
C000
FF80
FF80
ENDCHAR
STARTCHAR 0033
ENCODING 51
SWIDTH 600 0
DWIDTH 10 0
BBX 9 13 0 0
BITMAP
3C00
3C00
C380
C380
C380
0380
0C00
0C00
0380
C380
C380
3C00
3C00
ENDCHAR
STARTCHAR 0034
ENCODING 52
SWIDTH 660 0
DWIDTH 11 0
BBX 10 13 0 0
BITMAP
0380
0380
0F80
0F80
0380
3380
3380
C380
C380
FFC0
FFC0
0380
0380
ENDCHAR
STARTCHAR 0035
ENCODING 53
SWIDTH 720 0
DWIDTH 12 0
BBX 11 13 0 0
BITMAP
FF80
FF80
C000
C000
C000
C000
C000
3F80
3F80
80E0
80E0
7F80
7F80
ENDCHAR
STARTCHAR 0036
ENCODING 54
SWIDTH 660 0
DWIDTH 11 0
BBX 10 13 0 0
BITMAP
0F80
0F80
3000
3000
F000
C000
C000
FE00
FE00
C1C0
C1C0
3E00
3E00
ENDCHAR
STARTCHAR 0037
ENCODING 55
SWIDTH 600 0
DWIDTH 10 0
BBX 9 13 0 0
BITMAP
FF80
FF80
C380
C380
CF80
0C00
0C00
3000
3000
3000
3000
3000
3000
ENDCHAR
STARTCHAR 0038
ENCODING 56
SWIDTH 600 0
DWIDTH 10 0
BBX 9 13 0 0
BITMAP
3C00
3C00
C380
C380
C380
C380
3C00
3C00
C380
C380
C380
3C00
3C00
ENDCHAR
STARTCHAR 0039
ENCODING 57
SWIDTH 600 0
DWIDTH 10 0
BBX 9 13 0 0
BITMAP
3C00
3C00
C380
C380
C380
C380
C380
3F80
3F80
0380
0380
3C00
3C00
ENDCHAR
STARTCHAR 003A
ENCODING 58
SWIDTH 240 0
DWIDTH 4 0
BBX 2 10 1 0
BITMAP
C0
C0
C0
00
00
00
00
00
C0
C0
ENDCHAR
STARTCHAR 003B
ENCODING 59
SWIDTH 240 0
DWIDTH 4 0
BBX 2 12 1 -2
BITMAP
C0
C0
C0
00
00
00
00
00
C0
C0
40
80
ENDCHAR
STARTCHAR 003C
ENCODING 60
SWIDTH 420 0
DWIDTH 7 0
BBX 6 9 0 2
BITMAP
0C
0C
3C
30
C0
C0
30
0C
0C
ENDCHAR
STARTCHAR 003D
ENCODING 61
SWIDTH 600 0
DWIDTH 10 0
BBX 9 7 0 3
BITMAP
FF80
FF80
FF80
0000
0000
FF80
FF80
ENDCHAR
STARTCHAR 003E
ENCODING 62
SWIDTH 420 0
DWIDTH 7 0
BBX 6 9 0 2
BITMAP
C0
C0
F0
30
0C
0C
30
C0
C0
ENDCHAR
STARTCHAR 003F
ENCODING 63
SWIDTH 600 0
DWIDTH 10 0
BBX 9 13 0 0
BITMAP
3C00
3C00
C380
C380
C380
0380
0C00
0C00
3000
3000
0000
3000
3000
ENDCHAR
STARTCHAR 0040
ENCODING 64
SWIDTH 960 0
DWIDTH 16 0
BBX 15 16 0 -3
BITMAP
3FF8
7FFC
C006
C006
C3F6
C3F6
C3F6
CC36
CC36
CC36
CC36
CFFE
CFF8
C006
7FFC
3FF8
ENDCHAR
STARTCHAR 0041
ENCODING 65
SWIDTH 660 0
DWIDTH 11 0
BBX 10 13 0 0
BITMAP
3E00
3E00
C1C0
C1C0
C1C0
FFC0
FFC0
C1C0
C1C0
C1C0
C1C0
C1C0
C1C0
ENDCHAR
STARTCHAR 0042
ENCODING 66
SWIDTH 720 0
DWIDTH 12 0
BBX 11 13 0 0
BITMAP
FF80
FF80
C0E0
C0E0
C0E0
C0E0
FF80
FF80
C0E0
C0E0
C0E0
FF80
FF80
ENDCHAR
STARTCHAR 0043
ENCODING 67
SWIDTH 780 0
DWIDTH 13 0
BBX 12 13 0 0
BITMAP
3FE0
3FE0
C030
C030
C030
C000
C000
C000
C000
C030
C030
3FE0
3FE0
ENDCHAR
STARTCHAR 0044
ENCODING 68
SWIDTH 720 0
DWIDTH 12 0
BBX 11 13 0 0
BITMAP
FF80
FF80
C0E0
C0E0
C0E0
C0E0
C0E0
C0E0
C0E0
C0E0
C0E0
FF80
FF80
ENDCHAR
STARTCHAR 0045
ENCODING 69
SWIDTH 720 0
DWIDTH 12 0
BBX 11 13 0 0
BITMAP
FFE0
FFE0
C000
C000
F800
F800
F800
C000
C000
C000
C000
FFE0
FFE0
ENDCHAR
STARTCHAR 0046
ENCODING 70
SWIDTH 660 0
DWIDTH 11 0
BBX 10 13 0 0
BITMAP
FFC0
FFC0
C000
C000
FC00
FC00
FC00
C000
C000
C000
C000
C000
C000
ENDCHAR
STARTCHAR 0047
ENCODING 71
SWIDTH 780 0
DWIDTH 13 0
BBX 12 13 0 0
BITMAP
3FF0
3FF0
C000
C000
C1F0
C1F0
C1F0
C030
C030
C030
C030
3FC0
3FC0
ENDCHAR
STARTCHAR 0048
ENCODING 72
SWIDTH 720 0
DWIDTH 12 0
BBX 11 13 0 0
BITMAP
C0E0
C0E0
C0E0
C0E0
C0E0
C0E0
FFE0
FFE0
C0E0
C0E0
C0E0
C0E0
C0E0
ENDCHAR
STARTCHAR 0049
ENCODING 73
SWIDTH 360 0
DWIDTH 6 0
BBX 4 13 1 0
BITMAP
F0
F0
60
60
60
60
60
60
60
60
60
F0
F0
ENDCHAR
STARTCHAR 004A
ENCODING 74
SWIDTH 540 0
DWIDTH 9 0
BBX 7 13 0 0
BITMAP
06
06
06
06
06
06
06
06
06
C6
C6
38
38
ENDCHAR
STARTCHAR 004B
ENCODING 75
SWIDTH 660 0
DWIDTH 11 0
BBX 10 13 0 0
BITMAP
C000
C1C0
C1C0
C600
C600
C600
F800
F800
C600
C600
C1C0
C1C0
C1C0
ENDCHAR
STARTCHAR 004C
ENCODING 76
SWIDTH 660 0
DWIDTH 11 0
BBX 10 13 0 0
BITMAP
C000
C000
C000
C000
C000
C000
C000
C000
C000
C000
C000
FFC0
FFC0
ENDCHAR
STARTCHAR 004D
ENCODING 77
SWIDTH 720 0
DWIDTH 12 0
BBX 11 13 0 0
BITMAP
C0E0
C0E0
F3E0
F3E0
C0E0
CCE0
CCE0
C0E0
C0E0
C0E0
C0E0
C0E0
C0E0
ENDCHAR
STARTCHAR 004E
ENCODING 78
SWIDTH 720 0
DWIDTH 12 0
BBX 11 13 0 0
BITMAP
C0E0
F0E0
F0E0
CCE0
CCE0
CCE0
C3E0
C3E0
C0E0
C0E0
C0E0
C0E0
C0E0
ENDCHAR
STARTCHAR 004F
ENCODING 79
SWIDTH 840 0
DWIDTH 14 0
BBX 13 13 0 0
BITMAP
3FE0
3FE0
C018
C018
C018
C018
C018
C018
C018
C018
C018
3FE0
3FE0
ENDCHAR
STARTCHAR 0050
ENCODING 80
SWIDTH 720 0
DWIDTH 12 0
BBX 11 13 0 0
BITMAP
FF80
FF80
C0E0
C0E0
FFE0
FF80
FF80
C000
C000
C000
C000
C000
C000
ENDCHAR
STARTCHAR 0051
ENCODING 81
SWIDTH 840 0
DWIDTH 14 0
BBX 13 13 0 0
BITMAP
3FE0
3FE0
C018
C018
C018
C018
C018
C018
C018
C018
C398
3FE0
3FF8
ENDCHAR
STARTCHAR 0052
ENCODING 82
SWIDTH 840 0
DWIDTH 14 0
BBX 13 13 0 0
BITMAP
FFC0
FFC0
C030
C030
FFF0
FFC0
FFC0
C380
C380
C0E0
C0E0
C018
C018
ENDCHAR
STARTCHAR 0053
ENCODING 83
SWIDTH 660 0
DWIDTH 11 0
BBX 10 13 0 0
BITMAP
3FC0
3FC0
C000
C000
FE00
3E00
3E00
01C0
01C0
01C0
01C0
FE00
FE00
ENDCHAR
STARTCHAR 0054
ENCODING 84
SWIDTH 720 0
DWIDTH 12 0
BBX 11 13 0 0
BITMAP
FFE0
FFE0
0C00
0C00
0C00
0C00
0C00
0C00
0C00
0C00
0C00
0C00
0C00
ENDCHAR
STARTCHAR 0055
ENCODING 85
SWIDTH 720 0
DWIDTH 12 0
BBX 10 13 1 0
BITMAP
C1C0
C1C0
C1C0
C1C0
C1C0
C1C0
C1C0
C1C0
C1C0
C1C0
C1C0
3F00
3F00
ENDCHAR
STARTCHAR 0056
ENCODING 86
SWIDTH 720 0
DWIDTH 12 0
BBX 11 13 0 0
BITMAP
C0E0
C0E0
C0E0
C0E0
C0E0
C0E0
3380
3380
3380
0C00
0C00
0C00
0C00
ENDCHAR
STARTCHAR 0057
ENCODING 87
SWIDTH 720 0
DWIDTH 12 0
BBX 11 13 0 0
BITMAP
C0E0
C0E0
C0E0
C0E0
C0E0
C0E0
C0E0
CCE0
CCE0
F3E0
F3E0
C0E0
C0E0
ENDCHAR
STARTCHAR 0058
ENCODING 88
SWIDTH 720 0
DWIDTH 12 0
BBX 11 13 0 0
BITMAP
C0E0
C0E0
3380
3380
3F80
0C00
0C00
3380
3380
C0E0
C0E0
C0E0
C0E0
ENDCHAR
STARTCHAR 0059
ENCODING 89
SWIDTH 720 0
DWIDTH 12 0
BBX 11 13 0 0
BITMAP
C0E0
C0E0
3380
3380
3F80
0C00
0C00
0C00
0C00
0C00
0C00
0C00
0C00
ENDCHAR
STARTCHAR 005A
ENCODING 90
SWIDTH 720 0
DWIDTH 12 0
BBX 11 13 0 0
BITMAP
FFE0
FFE0
00E0
00E0
03E0
0380
0380
0C00
0C00
3000
3000
FFE0
FFE0
ENDCHAR
STARTCHAR 005B
ENCODING 91
SWIDTH 300 0
DWIDTH 5 0
BBX 4 16 0 -3
BITMAP
F0
F0
C0
C0
C0
C0
C0
C0
C0
C0
C0
C0
C0
C0
F0
F0
ENDCHAR
STARTCHAR 005C
ENCODING 92
SWIDTH 600 0
DWIDTH 10 0
BBX 9 13 0 0
BITMAP
8000
8000
4000
2000
2000
2000
1000
0800
0800
0400
0200
0200
0180
ENDCHAR
STARTCHAR 005D
ENCODING 93
SWIDTH 300 0
DWIDTH 5 0
BBX 4 16 0 -3
BITMAP
F0
F0
30
30
30
30
30
30
30
30
30
30
30
30
F0
F0
ENDCHAR
STARTCHAR 005E
ENCODING 94
SWIDTH 600 0
DWIDTH 10 0
BBX 9 7 0 6
BITMAP
1800
1800
6600
6600
E780
8180
8180
ENDCHAR
STARTCHAR 005F
ENCODING 95
SWIDTH 660 0
DWIDTH 11 0
BBX 10 1 0 0
BITMAP
FFC0
ENDCHAR
STARTCHAR 0060
ENCODING 96
SWIDTH 300 0
DWIDTH 5 0
BBX 3 3 1 10
BITMAP
80
40
20
ENDCHAR
STARTCHAR 0061
ENCODING 97
SWIDTH 660 0
DWIDTH 11 0
BBX 10 10 0 0
BITMAP
FE00
FE00
FE00
01C0
3FC0
3FC0
C1C0
C1C0
3FC0
3FC0
ENDCHAR
STARTCHAR 0062
ENCODING 98
SWIDTH 720 0
DWIDTH 12 0
BBX 11 13 0 0
BITMAP
C000
C000
C000
C000
CF80
CF80
CF80
F0E0
F0E0
C0E0
C0E0
FF80
FF80
ENDCHAR
STARTCHAR 0063
ENCODING 99
SWIDTH 660 0
DWIDTH 11 0
BBX 10 10 0 0
BITMAP
3E00
3E00
3E00
C1C0
C1C0
C000
C1C0
C1C0
3E00
3E00
ENDCHAR
STARTCHAR 0064
ENCODING 100
SWIDTH 600 0
DWIDTH 10 0
BBX 9 13 0 0
BITMAP
0380
0380
0380
3F80
3F80
3F80
C380
C380
C380
C380
C380
FF80
FF80
ENDCHAR
STARTCHAR 0065
ENCODING 101
SWIDTH 600 0
DWIDTH 10 0
BBX 9 10 0 0
BITMAP
3F80
3F80
3F80
C380
FF80
FC00
C000
C380
3F80
3F80
ENDCHAR
STARTCHAR 0066
ENCODING 102
SWIDTH 600 0
DWIDTH 10 0
BBX 9 13 0 0
BITMAP
3E00
3E00
3000
FF80
FF80
FF80
3000
3000
3000
3000
3000
3000
3000
ENDCHAR
STARTCHAR 0067
ENCODING 103
SWIDTH 600 0
DWIDTH 10 0
BBX 9 14 0 -4
BITMAP
3F80
3F80
3F80
C380
C380
3F80
3F80
0380
0380
0380
C380
C380
3C00
3C00
ENDCHAR
STARTCHAR 0068
ENCODING 104
SWIDTH 600 0
DWIDTH 10 0
BBX 9 13 0 0
BITMAP
C000
C000
C000
C000
CC00
CC00
CC00
F380
F380
C380
C380
C380
C380
ENDCHAR
STARTCHAR 0069
ENCODING 105
SWIDTH 180 0
DWIDTH 3 0
BBX 2 13 0 0
BITMAP
C0
C0
00
C0
C0
C0
C0
C0
C0
C0
C0
C0
C0
ENDCHAR
STARTCHAR 006A
ENCODING 106
SWIDTH 540 0
DWIDTH 9 0
BBX 7 13 0 -2
BITMAP
06
06
06
00
06
06
06
06
06
C6
C6
38
38
ENDCHAR
STARTCHAR 006B
ENCODING 107
SWIDTH 600 0
DWIDTH 10 0
BBX 9 13 0 0
BITMAP
C000
C000
C380
C380
CF80
CC00
CC00
F000
F000
CC00
CC00
C380
C380
ENDCHAR
STARTCHAR 006C
ENCODING 108
SWIDTH 180 0
DWIDTH 3 0
BBX 2 13 0 0
BITMAP
C0
C0
C0
C0
C0
C0
C0
C0
C0
C0
C0
C0
C0
ENDCHAR
STARTCHAR 006D
ENCODING 109
SWIDTH 960 0
DWIDTH 16 0
BBX 15 10 0 0
BITMAP
FCF8
FCF8
FCF8
C386
C386
C386
C386
C386
C386
C386
ENDCHAR
STARTCHAR 006E
ENCODING 110
SWIDTH 660 0
DWIDTH 11 0
BBX 10 10 0 0
BITMAP
FE00
FE00
FE00
C1C0
C1C0
C1C0
C1C0
C1C0
C1C0
C1C0
ENDCHAR
STARTCHAR 006F
ENCODING 111
SWIDTH 600 0
DWIDTH 10 0
BBX 9 10 0 0
BITMAP
3C00
3C00
3C00
C380
C380
C380
C380
C380
3C00
3C00
ENDCHAR
STARTCHAR 0070
ENCODING 112
SWIDTH 660 0
DWIDTH 11 0
BBX 10 13 0 -3
BITMAP
CE00
CE00
CE00
F1C0
F1C0
C1C0
C1C0
FE00
FE00
C000
C000
C000
C000
ENDCHAR
STARTCHAR 0071
ENCODING 113
SWIDTH 600 0
DWIDTH 10 0
BBX 9 13 0 -3
BITMAP
3B80
3B80
3F80
C780
C380
C380
C380
C380
3F80
3F80
0380
0380
0380
ENDCHAR
STARTCHAR 0072
ENCODING 114
SWIDTH 540 0
DWIDTH 9 0
BBX 7 10 0 0
BITMAP
DC
DE
FE
E2
C0
C0
C0
C0
C0
C0
ENDCHAR
STARTCHAR 0073
ENCODING 115
SWIDTH 540 0
DWIDTH 9 0
BBX 7 11 0 0
BITMAP
3E
3E
FE
C0
C0
38
38
06
06
F8
F8
ENDCHAR
STARTCHAR 0074
ENCODING 116
SWIDTH 360 0
DWIDTH 6 0
BBX 5 12 0 0
BITMAP
60
60
F0
F0
F0
60
60
60
60
60
18
18
ENDCHAR
STARTCHAR 0075
ENCODING 117
SWIDTH 600 0
DWIDTH 10 0
BBX 9 10 0 0
BITMAP
C380
C380
C380
C380
C380
C380
C380
C380
3F80
3F80
ENDCHAR
STARTCHAR 0076
ENCODING 118
SWIDTH 720 0
DWIDTH 12 0
BBX 11 7 0 0
BITMAP
C0E0
C0E0
C0E0
3380
3380
0C00
0C00
ENDCHAR
STARTCHAR 0077
ENCODING 119
SWIDTH 780 0
DWIDTH 13 0
BBX 12 9 0 0
BITMAP
C030
C030
C030
C030
C630
C630
C630
3FF0
3FF0
ENDCHAR
STARTCHAR 0078
ENCODING 120
SWIDTH 720 0
DWIDTH 12 0
BBX 11 11 0 0
BITMAP
C0E0
C0E0
F3E0
3380
3380
0C00
0C00
3380
3380
C0E0
C0E0
ENDCHAR
STARTCHAR 0079
ENCODING 121
SWIDTH 600 0
DWIDTH 10 0
BBX 9 12 0 -2
BITMAP
C380
C380
C380
C380
C380
C380
3F80
3F80
0380
0380
FC00
FC00
ENDCHAR
STARTCHAR 007A
ENCODING 122
SWIDTH 600 0
DWIDTH 10 0
BBX 9 11 0 0
BITMAP
FF80
FF80
FE00
0600
0600
1800
1800
6000
6000
FF80
FF80
ENDCHAR
STARTCHAR 007B
ENCODING 123
SWIDTH 360 0
DWIDTH 6 0
BBX 5 17 0 -4
BITMAP
18
18
60
60
60
60
60
60
C0
60
60
60
60
60
60
18
18
ENDCHAR
STARTCHAR 007C
ENCODING 124
SWIDTH 180 0
DWIDTH 3 0
BBX 2 17 0 -4
BITMAP
C0
C0
C0
C0
C0
C0
C0
C0
C0
C0
C0
C0
C0
C0
C0
C0
C0
ENDCHAR
STARTCHAR 007D
ENCODING 125
SWIDTH 360 0
DWIDTH 6 0
BBX 5 17 0 -4
BITMAP
C0
C0
30
30
30
30
30
30
18
30
30
30
30
30
30
C0
C0
ENDCHAR
STARTCHAR 007E
ENCODING 126
SWIDTH 720 0
DWIDTH 12 0
BBX 11 2 0 5
BITMAP
38E0
C780
ENDCHAR
STARTCHAR 00A0
ENCODING 160
SWIDTH 300 0
DWIDTH 5 0
BBX 0 0 0 0
BITMAP
ENDCHAR
STARTCHAR 00A1
ENCODING 161
SWIDTH 360 0
DWIDTH 6 0
BBX 4 12 1 -3
BITMAP
60
60
60
00
60
60
60
60
60
60
60
F0
ENDCHAR
STARTCHAR 00A2
ENCODING 162
SWIDTH 600 0
DWIDTH 10 0
BBX 9 16 0 -3
BITMAP
0200
0200
3C00
3C00
FF80
C780
C780
C800
D000
D380
E380
3C00
3C00
4000
8000
8000
ENDCHAR
STARTCHAR 00A3
ENCODING 163
SWIDTH 600 0
DWIDTH 10 0
BBX 9 13 0 0
BITMAP
1C00
3E00
6380
6380
6380
6000
FC00
FC00
3000
3000
6000
FF80
FF80
ENDCHAR
STARTCHAR 00A4
ENCODING 164
SWIDTH 660 0
DWIDTH 11 0
BBX 10 10 0 1
BITMAP
80C0
5D80
5F80
3E00
6380
6380
6380
3E00
5D80
80C0
ENDCHAR
STARTCHAR 00A5
ENCODING 165
SWIDTH 660 0
DWIDTH 11 0
BBX 10 13 0 -1
BITMAP
80C0
80C0
4180
6380
2200
1C00
FFC0
FFC0
0800
FFC0
FFC0
0800
0800
ENDCHAR
STARTCHAR 00A6
ENCODING 166
SWIDTH 240 0
DWIDTH 4 0
BBX 2 17 1 -4
BITMAP
C0
C0
C0
C0
C0
C0
C0
C0
00
00
C0
C0
C0
C0
C0
C0
C0
ENDCHAR
STARTCHAR 00A7
ENCODING 167
SWIDTH 600 0
DWIDTH 10 0
BBX 8 15 1 -3
BITMAP
38
44
40
60
20
50
88
84
43
34
08
04
84
44
38
ENDCHAR
STARTCHAR 00A8
ENCODING 168
SWIDTH 360 0
DWIDTH 6 0
BBX 5 2 0 11
BITMAP
D8
D8
ENDCHAR
STARTCHAR 00A9
ENCODING 169
SWIDTH 840 0
DWIDTH 14 0
BBX 13 13 0 0
BITMAP
0F80
10C0
2020
4610
CF98
8988
9008
9008
9008
4990
2620
10C0
0F80
ENDCHAR
STARTCHAR 20AC
ENCODING 8364
SWIDTH 660 0
DWIDTH 11 0
BBX 10 14 0 -1
BITMAP
1E00
3FC0
71C0
6000
7F80
FF80
FF80
6000
FE00
FE00
6000
3180
1F80
0E00
ENDCHAR
STARTCHAR 3000
ENCODING 12288
SWIDTH 1020 0
DWIDTH 17 0
BBX 0 0 0 0
BITMAP
ENDCHAR
ENDFONT
